<?xml version="1.0" standalone="no"?>
<!DOCTYPE svg PUBLIC "-//W3C//DTD SVG 20010904//EN"
 "http://www.w3.org/TR/2001/REC-SVG-20010904/DTD/svg10.dtd">
<svg version="1.0" xmlns="http://www.w3.org/2000/svg"
 width="520.000000pt" height="520.000000pt" viewBox="0 0 520.000000 520.000000"
 preserveAspectRatio="xMidYMid meet">
<metadata>
Created by potrace 1.11, written by Peter Selinger 2001-2013
</metadata>
<g transform="translate(0.000000,520.000000) scale(0.100000,-0.100000)"
fill="#000000" stroke="none">
<path d="M1470 3437 c0 -2 113 -309 250 -682 138 -373 250 -680 250 -682 0 -2
153 -3 341 -3 321 0 341 1 334 18 -3 9 -117 317 -252 685 l-246 667 -339 0
c-186 0 -338 -1 -338 -3z"/>
<path d="M2943 3425 c-182 -40 -353 -212 -393 -395 -8 -37 -11 -138 -8 -310 3
-233 5 -260 25 -313 48 -128 175 -257 302 -308 46 -18 81 -23 204 -27 l147 -4
0 686 0 686 -107 -1 c-60 0 -136 -7 -170 -14z"/>
<path d="M3270 3105 l0 -335 343 2 342 3 3 80 c7 181 -43 314 -161 429 -117
115 -227 156 -419 156 l-108 0 0 -335z"/>
<path d="M1210 2738 c-128 -348 -237 -641 -242 -650 -8 -17 17 -18 473 -18
444 0 481 1 475 17 -4 9 -110 300 -237 647 -127 347 -232 632 -233 634 -2 1
-108 -283 -236 -630z"/>
<path d="M3272 2343 c4 -371 5 -391 26 -447 31 -83 74 -147 141 -208 114 -105
208 -138 398 -138 l123 0 0 590 0 590 -346 0 -345 0 3 -387z"/>
</g>
</svg>
